# xmcd
#
# Track frame offsets: 
#        150
#        17709
#        49886
#        61198
#        79390
#        93382
#        108393
#        123965
#        174295
#        191495
#        203942
#        215058
#        229803
#        247776
#
# Disc length: 3564 seconds
#
# Revision: 0
# Processed by: cddbd v1.5.2PL0 Copyright (c) Steve Scherf et al.
# Submitted via: ExactAudioCopy v0.95b3
#
DISCID=bb0dea0e
DTITLE=Various  - Monterey Pop Festival 1967 Vol. 1  FLAC
DYEAR=1900
DGENRE=
TTITLE0=Jefferson Airplane \\ Somebody To Love
TTITLE1=Jefferson Airplane \\ Other Side Of This Life
TTITLE2=Jefferson Airplane \\ White Rabbit
TTITLE3=Jefferson Airplane \\ High Flying Bird
TTITLE4=Jefferson Airplane \\ Today
TTITLE5=Jefferson Airplane \\ She Has Funny Cars
TTITLE6=Jefferson Airplane \\ Young Girl Sunday Blues
TTITLE7=Jefferson Airplane \\ Ballad Of You And Me And Pooneil
TTITLE8=The Who \\ Summertime Blues
TTITLE9=The Who \\ Pictures Of Lily
TTITLE10=The Who \\ Happy Jack
TTITLE11=The Who \\ My Generation
TTITLE12=Steve Miller Blues Band \\ Mercury Blues
TTITLE13=Scott Mc Kenzie \\ San Francisco
EXTD=
EXTT0=
EXTT1=
EXTT2=
EXTT3=
EXTT4=
EXTT5=
EXTT6=
EXTT7=
EXTT8=
EXTT9=
EXTT10=
EXTT11=
EXTT12=
EXTT13=
PLAYORDER=
